<?xml version="1.0" encoding="UTF-8" standalone="no"?>
<!-- Created with Inkscape (http://www.inkscape.org/) -->

<svg
   width="121.91331mm"
   height="121.90545mm"
   viewBox="0 0 121.91331 121.90545"
   version="1.1"
   id="svg5"
   inkscape:version="1.1.1 (3bf5ae0d25, 2021-09-20)"
   xmlns:inkscape="http://www.inkscape.org/namespaces/inkscape"
   xmlns:sodipodi="http://sodipodi.sourceforge.net/DTD/sodipodi-0.dtd"
   xmlns="http://www.w3.org/2000/svg"
   xmlns:svg="http://www.w3.org/2000/svg">
  <sodipodi:namedview
     id="namedview7"
     pagecolor="#ffffff"
     bordercolor="#666666"
     borderopacity="1.0"
     inkscape:pageshadow="2"
     inkscape:pageopacity="0.0"
     inkscape:pagecheckerboard="0"
     inkscape:document-units="mm"
     showgrid="false"
     fit-margin-top="0"
     fit-margin-left="0"
     fit-margin-right="0"
     fit-margin-bottom="0"
     inkscape:zoom="0.64052329"
     inkscape:cx="71.035669"
     inkscape:cy="309.90286"
     inkscape:window-width="1920"
     inkscape:window-height="1009"
     inkscape:window-x="-8"
     inkscape:window-y="-8"
     inkscape:window-maximized="1"
     inkscape:current-layer="layer1" />
  <defs
     id="defs2" />
  <g
     inkscape:label="Ebene 1"
     inkscape:groupmode="layer"
     id="layer1"
     transform="translate(-86.510657,-66.687055)">
    <g
       id="g877"
       transform="matrix(0.26458333,0,0,0.26458333,86.510591,66.683086)"
       style="fill:#ffffff">
      <path
         d="M 285.08,230.397 456.218,59.27 c 6.076,-6.077 6.076,-15.911 0,-21.986 L 423.511,4.565 c -2.913,-2.911 -6.866,-4.55 -10.992,-4.55 -4.127,0 -8.08,1.639 -10.993,4.55 L 230.388,175.705 59.25,4.565 c -2.913,-2.911 -6.866,-4.55 -10.993,-4.55 -4.126,0 -8.08,1.639 -10.992,4.55 L 4.558,37.284 c -6.077,6.075 -6.077,15.909 0,21.986 L 175.696,230.398 4.575,401.505 c -6.074,6.077 -6.074,15.911 0,21.986 l 32.709,32.719 c 2.911,2.911 6.865,4.55 10.992,4.55 4.127,0 8.08,-1.639 10.994,-4.55 L 230.387,285.09 401.505,456.21 c 2.913,2.911 6.866,4.55 10.993,4.55 4.128,0 8.081,-1.639 10.992,-4.55 l 32.709,-32.719 c 6.074,-6.075 6.074,-15.909 0,-21.986 z"
         id="path824"
         style="fill:#ffffff" />
      <g
         id="g826"
         style="fill:#ffffff">
</g>
      <g
         id="g828"
         style="fill:#ffffff">
</g>
      <g
         id="g830"
         style="fill:#ffffff">
</g>
      <g
         id="g832"
         style="fill:#ffffff">
</g>
      <g
         id="g834"
         style="fill:#ffffff">
</g>
      <g
         id="g836"
         style="fill:#ffffff">
</g>
      <g
         id="g838"
         style="fill:#ffffff">
</g>
      <g
         id="g840"
         style="fill:#ffffff">
</g>
      <g
         id="g842"
         style="fill:#ffffff">
</g>
      <g
         id="g844"
         style="fill:#ffffff">
</g>
      <g
         id="g846"
         style="fill:#ffffff">
</g>
      <g
         id="g848"
         style="fill:#ffffff">
</g>
      <g
         id="g850"
         style="fill:#ffffff">
</g>
      <g
         id="g852"
         style="fill:#ffffff">
</g>
      <g
         id="g854"
         style="fill:#ffffff">
</g>
    </g>
  </g>
</svg>
